<?xml version="1.0" encoding="iso-8859-1"?>
<!-- Generator: Adobe Illustrator 16.0.0, SVG Export Plug-In . SVG Version: 6.00 Build 0)  -->
<!DOCTYPE svg PUBLIC "-//W3C//DTD SVG 1.1//EN" "http://www.w3.org/Graphics/SVG/1.1/DTD/svg11.dtd">
<svg version="1.1" id="Capa_1" xmlns="http://www.w3.org/2000/svg" xmlns:xlink="http://www.w3.org/1999/xlink" x="0px" y="0px"
	 width="34.082px" height="34.082px" viewBox="0 0 34.082 34.082" style="enable-background:new 0 0 34.082 34.082;"
	 xml:space="preserve">
<g>
	<path d="M20.811,17.156c-0.256-0.148-0.627-0.284-1.108-0.407c0.448-0.153,0.812-0.346,1.087-0.581
		c0.273-0.234,0.484-0.504,0.631-0.81s0.221-0.629,0.221-0.969c0-0.468-0.14-0.899-0.414-1.291c-0.276-0.392-0.67-0.693-1.184-0.902
		c-0.199-0.082-0.438-0.145-0.691-0.192v-1.821h-1.749v1.698H16.48v-1.698h-1.749v1.698h-2.666v1.428h0.407
		c0.271,0,0.455,0.025,0.551,0.074c0.096,0.049,0.164,0.116,0.203,0.199c0.04,0.084,0.06,0.279,0.06,0.584v5.755
		c0,0.302-0.02,0.495-0.06,0.581s-0.107,0.153-0.203,0.2c-0.097,0.047-0.28,0.069-0.551,0.069h-0.407V22.2h2.666v1.698h1.748V22.2
		h0.994c0.044,0,0.085-0.001,0.128-0.001v1.699h1.749v-1.847c0.293-0.056,0.551-0.127,0.771-0.216
		c0.604-0.24,1.069-0.593,1.397-1.054c0.33-0.46,0.496-0.966,0.496-1.513c0-0.459-0.107-0.875-0.326-1.246
		C21.473,17.652,21.18,17.363,20.811,17.156z M15.838,13.545h1.132c0.66,0,1.119,0.042,1.375,0.123
		c0.256,0.081,0.451,0.218,0.588,0.411c0.135,0.192,0.203,0.424,0.203,0.695c0,0.261-0.072,0.492-0.216,0.692
		c-0.144,0.199-0.354,0.348-0.64,0.447c-0.284,0.099-0.722,0.148-1.313,0.148h-1.132L15.838,13.545L15.838,13.545z M19.035,19.922
		c-0.202,0.258-0.447,0.426-0.735,0.508c-0.288,0.081-0.651,0.122-1.088,0.122h-0.753c-0.25,0-0.404-0.015-0.461-0.042
		s-0.097-0.074-0.122-0.144c-0.021-0.054-0.032-0.239-0.037-0.556v-2.233h1.335c0.585,0,1.021,0.055,1.307,0.163
		c0.285,0.107,0.5,0.269,0.644,0.479c0.144,0.215,0.214,0.473,0.214,0.777C19.337,19.357,19.236,19.666,19.035,19.922z M7.79,26.791
		h18.5c0.276,0,0.5-0.225,0.5-0.5v-18.5c0-0.276-0.224-0.5-0.5-0.5H7.79c-0.276,0-0.5,0.224-0.5,0.5v18.5
		C7.29,26.566,7.514,26.791,7.79,26.791z M8.29,8.291h17.5v17.5H8.29V8.291z M34.082,15.172V9.748h-4.387V5.387c0-0.552-0.448-1-1-1
		h-4.361V0H18.91v4.387h-3.738V0H9.748v4.387H5.387c-0.552,0-1,0.448-1,1v4.361H0v5.424h4.387v3.738H0v5.424h4.387v4.361
		c0,0.552,0.448,1,1,1h4.361v4.387h5.424v-4.387h3.738v4.387h5.424v-4.387h4.361c0.552,0,1-0.448,1-1v-4.361h4.387V18.91h-4.387
		v-3.738H34.082z M27.693,27.695H6.385V6.385h21.308V27.695L27.693,27.695z"/>
</g>
<g>
</g>
<g>
</g>
<g>
</g>
<g>
</g>
<g>
</g>
<g>
</g>
<g>
</g>
<g>
</g>
<g>
</g>
<g>
</g>
<g>
</g>
<g>
</g>
<g>
</g>
<g>
</g>
<g>
</g>
</svg>
